#!OML:ASF G:\ViconDB\ViconDB\414\test\team2\shane.ASF
:FULLY-SPECIFIED
:DEGREES
190
root 3.73906 15.9498 -2.56445 -10.8735 -1.88574 -3.79856
lowerback 8.77885 0.257043 -0.513416
upperback 7.24855 0.295023 0.855012
thorax 2.59112 0.104308 1.15278
lowerneck -19.8093 -4.11837 -8.32236
upperneck 22.5614 -6.12424 11.0669
head 11.2193 -2.16374 4.50917
rclavicle 4.52235e-015 -7.95139e-016
rhumerus -33.6197 13.365 -92.3466
rradius 30.6378
rwrist 35.3098
rhand -32.0258 -14.4943
rfingers 7.12502
rthumb -5.27369 -44.4087
lclavicle 4.52235e-015 -7.95139e-016
lhumerus -31.0629 -14.37 95.8362
lradius 29.2005
lwrist -14.1271
lhand -39.9266 7.74793
lfingers 7.12502
lthumb -12.897 37.3294
rfemur -5.21148 -16.7785 9.38879
rtibia 76.4145
rfoot -15.7231 1.56494
rtoes -15.8671
lfemur -6.07318 8.76439 -15.6469
ltibia 49.4357
lfoot -33.8366 -7.70011
ltoes -7.30481
191
root 3.76475 15.9579 -2.42147 -11.0449 -1.94932 -3.85696
lowerback 8.95218 -0.0189808 -0.623868
upperback 7.31301 -0.0847512 1.17557
thorax 2.57504 -0.0996019 1.57098
lowerneck -19.727 -3.84157 -8.35573
upperneck 22.5683 -5.61296 10.6583
head 11.1309 -1.98651 4.44276
rclavicle -6.65929e-015 -1.98785e-016
rhumerus -34.0391 12.6959 -91.6096
rradius 31.076
rwrist 35.6681
rhand -32.5495 -15.1195
rfingers 7.12502
rthumb -5.77926 -45.0207
lclavicle -6.65929e-015 -1.98785e-016
lhumerus -30.1431 -14.2862 95.8792
lradius 29.5352
lwrist -14.9897
lhand -39.6898 7.63922
lfingers 7.12502
lthumb -12.6688 37.235
rfemur -6.77372 -16.815 9.8872
rtibia 76.1628
rfoot -16.4223 1.76423
rtoes -16.067
lfemur -5.36428 8.37391 -15.5726
ltibia 49.2623
lfoot -33.8776 -8.38662
ltoes -6.2277
192
root 3.78398 15.9713 -2.27377 -11.1483 -2.18561 -3.94851
lowerback 9.18921 -0.247407 -0.43557
upperback 7.27654 -0.378889 1.29727
thorax 2.4161 -0.242564 1.61187
lowerneck -19.7341 -3.55356 -8.17847
upperneck 22.7416 -5.19185 10.354
head 11.1327 -1.81527 4.37002
rclavicle 3.08116e-015 -2.78299e-015
rhumerus -34.7283 12.685 -91.5592
rradius 31.6851
rwrist 34.1192
rhand -33.0537 -15.9844
rfingers 7.12502
rthumb -6.26601 -45.8717
lclavicle 3.08116e-015 -2.78299e-015
lhumerus -29.5628 -15.3173 96.1282
lradius 30.2597
lwrist -13.4354
lhand -40.1118 7.90191
lfingers 7.12502
lthumb -13.0756 37.472
rfemur -8.39383 -16.4043 10.6523
rtibia 75.7654
rfoot -17.0417 1.96598
rtoes -15.1958
lfemur -4.34997 8.51731 -15.4114
ltibia 48.8001
lfoot -34.2116 -8.3772
ltoes -6.63466
193
root 3.80188 15.9832 -2.13036 -11.2087 -2.33597 -3.92419
lowerback 9.31523 -0.465541 -0.448495
upperback 7.25864 -0.671951 1.43636
thorax 2.34026 -0.393823 1.78467
lowerneck -19.7067 -3.32785 -8.04536
upperneck 22.8649 -4.84998 10.0751
head 11.1224 -1.68235 4.29987
rclavicle 1.4387e-014 -1.25234e-014
rhumerus -35.1868 11.7588 -91.1135
rradius 32.0544
rwrist 33.475
rhand -33.08 -16.1464
rfingers 7.12502
rthumb -6.29149 -46.0329
lclavicle 1.4387e-014 -1.25234e-014
lhumerus -28.6322 -15.4254 95.8994
lradius 30.4947
lwrist -14.0859
lhand -40.3202 7.96933
lfingers 7.12502
lthumb -13.2764 37.5265
rfemur -9.98714 -16.0677 11.2642
rtibia 75.1272
rfoot -17.5657 2.14233
rtoes -15.1389
lfemur -3.38095 8.64414 -15.3731
ltibia 48.2166
lfoot -34.4036 -8.42177
ltoes -6.82683
194
root 3.81646 16.008 -1.98526 -11.1373 -2.62209 -3.9497
lowerback 9.28059 -0.659486 -0.40507
upperback 7.23801 -0.929699 1.56078
thorax 2.34854 -0.525318 1.90686
lowerneck -19.8705 -3.07526 -7.86018
upperneck 23.0967 -4.48787 9.81787
head 11.1887 -1.52777 4.23593
rclavicle -1.1691e-014 2.32578e-014
rhumerus -35.4776 10.1425 -90.4586
rradius 32.2137
rwrist 33.906
rhand -32.9537 -16.6467
rfingers 7.12502
rthumb -6.16948 -46.5368
lclavicle -1.1691e-014 2.32578e-014
lhumerus -27.559 -15.0791 95.6164
lradius 30.5518
lwrist -14.6862
lhand -40.0814 7.70475
lfingers 7.12502
lthumb -13.0463 37.2768
rfemur -11.7098 -15.7358 12.0463
rtibia 74.2931
rfoot -18.0803 2.02667
rtoes -15.5262
lfemur -2.40531 8.87293 -15.2901
ltibia 47.3785
lfoot -34.486 -8.32588
ltoes -7.07904
195
root 3.83144 16.0428 -1.83761 -11.0937 -2.8051 -3.85248
lowerback 9.29328 -0.853074 -0.506533
upperback 7.0546 -1.19352 1.65879
thorax 2.16372 -0.66221 2.08541
lowerneck -19.5815 -2.8128 -7.71856
upperneck 23.3022 -4.1526 9.65643
head 11.1652 -1.38951 4.20889
rclavicle -5.26779e-015 -9.93923e-017
rhumerus -36.1463 8.87553 -89.9723
rradius 32.2921
rwrist 33.3345
rhand -32.9153 -15.9789
rfingers 7.12502
rthumb -6.1324 -45.8702
lclavicle -5.26779e-015 -9.93923e-017
lhumerus -27.083 -15.4982 95.6824
lradius 31.1018
lwrist -13.046
lhand -40.2806 7.54161
lfingers 7.12502
lthumb -13.2382 37.1012
rfemur -13.2296 -15.3529 12.6325
rtibia 73.2825
rfoot -18.7318 1.9313
rtoes -15.7555
lfemur -1.37844 9.23066 -15.2521
ltibia 46.3882
lfoot -34.379 -8.77729
ltoes -7.15701
196
root 3.83556 16.0949 -1.69272 -10.9508 -2.89313 -3.90179
lowerback 9.21805 -1.07172 -0.722825
upperback 6.94975 -1.5014 1.93982
thorax 2.12294 -0.830907 2.5196
lowerneck -19.6484 -2.59169 -7.83022
upperneck 23.5445 -3.78837 9.55702
head 11.2295 -1.24487 4.25578
rclavicle 6.0078e-015 -2.1506e-014
rhumerus -36.6397 8.54998 -89.5275
rradius 32.4275
rwrist 33.0159
rhand -32.4992 -16.539
rfingers 7.12502
rthumb -5.73076 -46.4415
lclavicle 6.0078e-015 -2.1506e-014
lhumerus -26.173 -15.0973 95.5825
lradius 31.1929
lwrist -13.4299
lhand -40.3415 7.53188
lfingers 7.12502
lthumb -13.2969 37.0877
rfemur -14.7313 -14.787 13.4891
rtibia 72.0672
rfoot -19.1604 1.73019
rtoes -16.0628
lfemur -0.356443 9.28575 -15.0923
ltibia 45.1998
lfoot -34.1232 -9.11553
ltoes -7.30991
197
root 3.85 16.1457 -1.5466 -10.8544 -2.93053 -3.9218
lowerback 9.25018 -1.33757 -0.683921
upperback 6.79406 -1.8519 2.10043
thorax 1.96484 -1.0071 2.69186
lowerneck -19.6811 -2.41487 -7.8353
upperneck 23.8883 -3.49864 9.34318
head 11.3292 -1.13991 4.23289
rclavicle -9.46712e-015 -5.96354e-015
rhumerus -37.2822 8.12742 -89.2464
rradius 32.5184
rwrist 31.8278
rhand -32.3034 -16.4585
rfingers 7.12502
rthumb -5.54164 -46.3661
lclavicle -9.46712e-015 -5.96354e-015
lhumerus -25.5148 -15.08 95.528
lradius 31.5707
lwrist -12.7162
lhand -40.2449 7.73659
lfingers 7.12502
lthumb -13.2039 37.2984
rfemur -16.0897 -14.5088 14.1987
rtibia 70.7185
rfoot -19.4852 1.61846
rtoes -16.5052
lfemur 0.77933 9.34911 -15.0519
ltibia 43.8106
lfoot -33.799 -9.11623
ltoes -7.64794
198
root 3.85051 16.206 -1.39749 -10.7919 -2.96444 -3.95752
lowerback 9.2488 -1.55465 -0.859187
upperback 6.67396 -2.15342 2.33904
thorax 1.87378 -1.16871 3.06156
lowerneck -19.6984 -2.1794 -7.64247
upperneck 24.1132 -3.1266 8.93669
head 11.3671 -1.00414 4.11121
rclavicle -9.28076e-015 1.83876e-014
rhumerus -37.6965 7.41252 -88.6301
rradius 32.5072
rwrist 32.0381
rhand -31.2883 -16.5323
rfingers 7.12502
rthumb -4.56157 -46.4632
lclavicle -9.28076e-015 1.83876e-014
lhumerus -24.7372 -14.3566 95.2981
lradius 31.6446
lwrist -13.4852
lhand -40.3412 7.27681
lfingers 7.12502
lthumb -13.2966 36.8326
rfemur -17.2153 -14.1642 14.935
rtibia 69.1986
rfoot -19.7321 1.59584
rtoes -15.9115
lfemur 2.01139 9.41694 -14.8718
ltibia 42.31
lfoot -33.2845 -9.56565
ltoes -8.43769
199
root 3.8597 16.2666 -1.24966 -10.7369 -2.96537 -4.0273
lowerback 9.32516 -1.80544 -0.769316
upperback 6.53565 -2.47969 2.55496
thorax 1.71418 -1.33188 3.26419
lowerneck -19.8468 -2.00982 -7.7123
upperneck 24.5083 -2.81231 8.70745
head 11.5108 -0.895621 4.10007
rclavicle 3.57315e-014 -5.88403e-014
rhumerus -38.2364 7.10363 -88.2435
rradius 32.3019
rwrist 31.4214
rhand -31.2072 -16.2054
rfingers 7.12502
rthumb -4.48321 -46.138
lclavicle 3.57315e-014 -5.88403e-014
lhumerus -24.1547 -14.4792 95.3219
lradius 31.9032
lwrist -13.3978
lhand -40.2694 7.5915
lfingers 7.12502
lthumb -13.2275 37.1518
rfemur -18.3543 -13.715 15.6647
rtibia 67.5641
rfoot -19.7704 1.73721
rtoes -15.9778
lfemur 3.426 9.68802 -14.7165
ltibia 40.6334
lfoot -32.9324 -9.20074
ltoes -9.65955
200
root 3.86502 16.349 -1.10313 -10.5949 -2.95497 -4.02565
lowerback 9.33835 -2.05108 -0.934631
upperback 6.35212 -2.81656 2.80217
thorax 1.5595 -1.50877 3.64352
lowerneck -19.8949 -1.7806 -7.63
upperneck 24.8208 -2.41673 8.31768
head 11.5925 -0.759392 4.01055
rclavicle 4.22914e-014 -2.38542e-014
rhumerus -38.8225 7.18648 -88.0154
rradius 32.2951
rwrist 30.5297
rhand -31.1199 -16.3559
rfingers 7.12502
rthumb -4.39893 -46.2902
lclavicle 4.22914e-014 -2.38542e-014
lhumerus -23.6066 -14.1222 95.3103
lradius 32.2137
lwrist -13.3227
lhand -40.4372 7.72529
lfingers 7.12502
lthumb -13.3892 37.275
rfemur -19.3719 -13.3091 16.263
rtibia 65.736
rfoot -19.6911 2.20965
rtoes -15.7076
lfemur 4.52496 9.62833 -14.6434
ltibia 38.8833
lfoot -31.9091 -9.92341
ltoes -9.62562
201
root 3.87034 16.4195 -0.951582 -10.48 -2.94128 -4.1442
lowerback 9.36625 -2.32971 -0.856443
upperback 6.12747 -3.17792 3.06176
thorax 1.34753 -1.6887 3.90343
lowerneck -19.9048 -1.58855 -7.6789
upperneck 25.1781 -2.06151 8.02495
head 11.6932 -0.644017 3.97546
rclavicle -1.83379e-014 9.14409e-015
rhumerus -39.4535 7.35833 -87.7564
rradius 32.0796
rwrist 30.1376
rhand -30.6323 -16.4216
rfingers 7.12502
rthumb -3.92806 -46.3652
lclavicle -1.83379e-014 9.14409e-015
lhumerus -23.2801 -13.8114 95.321
lradius 32.5427
lwrist -13.4358
lhand -40.446 7.57821
lfingers 7.12502
lthumb -13.3976 37.1274
rfemur -20.2533 -12.825 16.9486
rtibia 63.7859
rfoot -19.2804 2.90449
rtoes -15.5288
lfemur 5.8873 9.82041 -14.4158
ltibia 37.083
lfoot -31.2228 -9.94244
ltoes -10.3225
